<?xml version="1.0" encoding="utf-8" standalone="no"?>
<!DOCTYPE svg PUBLIC "-//W3C//DTD SVG 1.1//EN"
  "http://www.w3.org/Graphics/SVG/1.1/DTD/svg11.dtd">
<svg xmlns:xlink="http://www.w3.org/1999/xlink" width="1008pt" height="504pt" viewBox="0 0 1008 504" xmlns="http://www.w3.org/2000/svg" version="1.1">
 <metadata>
  <rdf:RDF xmlns:dc="http://purl.org/dc/elements/1.1/" xmlns:cc="http://creativecommons.org/ns#" xmlns:rdf="http://www.w3.org/1999/02/22-rdf-syntax-ns#">
   <cc:Work>
    <dc:type rdf:resource="http://purl.org/dc/dcmitype/StillImage"/>
    <dc:date>2026-03-14T23:32:14.585146</dc:date>
    <dc:format>image/svg+xml</dc:format>
    <dc:creator>
     <cc:Agent>
      <dc:title>Matplotlib v3.10.8, https://matplotlib.org/</dc:title>
     </cc:Agent>
    </dc:creator>
   </cc:Work>
  </rdf:RDF>
 </metadata>
 <defs>
  <style type="text/css">*{stroke-linejoin: round; stroke-linecap: butt}</style>
 </defs>
 <g id="figure_1">
  <g id="patch_1">
   <path d="M 0 504 
L 1008 504 
L 1008 0 
L 0 0 
L 0 504 
z
" style="fill: none"/>
  </g>
  <g id="axes_1">
   <g id="patch_2">
    <path d="M 61.11 441.256127 
L 995.04 441.256127 
L 995.04 14.319884 
L 61.11 14.319884 
L 61.11 441.256127 
z
" style="fill: none"/>
   </g>
   <g id="matplotlib.axis_1">
    <g id="xtick_1">
     <g id="line2d_1">
      <path d="M 69.351474 441.256127 
L 69.351474 14.319884 
" clip-path="url(#p7aa5a39f1d)" style="fill: none; stroke-dasharray: 3.7,1.6; stroke-dashoffset: 0; stroke: #cccccc; stroke-opacity: 0.5"/>
     </g>
     <g id="text_1">
      <text style="font-size: 11px; font-family: 'Arial', 'DejaVu Sans', 'Liberation Sans', 'Bitstream Vera Sans', sans-serif; fill: #262626" transform="translate(54.715137 489.617831) rotate(-45)">Dec 2021</text>
     </g>
    </g>
    <g id="xtick_2">
     <g id="line2d_2">
      <path d="M 162.651174 441.256127 
L 162.651174 14.319884 
" clip-path="url(#p7aa5a39f1d)" style="fill: none; stroke-dasharray: 3.7,1.6; stroke-dashoffset: 0; stroke: #cccccc; stroke-opacity: 0.5"/>
     </g>
     <g id="text_2">
      <text style="font-size: 11px; font-family: 'Arial', 'DejaVu Sans', 'Liberation Sans', 'Bitstream Vera Sans', sans-serif; fill: #262626" transform="translate(148.233598 489.180309) rotate(-45)">Mar 2022</text>
     </g>
    </g>
    <g id="xtick_3">
     <g id="line2d_3">
      <path d="M 258.024201 441.256127 
L 258.024201 14.319884 
" clip-path="url(#p7aa5a39f1d)" style="fill: none; stroke-dasharray: 3.7,1.6; stroke-dashoffset: 0; stroke: #cccccc; stroke-opacity: 0.5"/>
     </g>
     <g id="text_3">
      <text style="font-size: 11px; font-family: 'Arial', 'DejaVu Sans', 'Liberation Sans', 'Bitstream Vera Sans', sans-serif; fill: #262626" transform="translate(244.033817 488.325925) rotate(-45)">Jun 2022</text>
     </g>
    </g>
    <g id="xtick_4">
     <g id="line2d_4">
      <path d="M 353.397228 441.256127 
L 353.397228 14.319884 
" clip-path="url(#p7aa5a39f1d)" style="fill: none; stroke-dasharray: 3.7,1.6; stroke-dashoffset: 0; stroke: #cccccc; stroke-opacity: 0.5"/>
     </g>
     <g id="text_4">
      <text style="font-size: 11px; font-family: 'Arial', 'DejaVu Sans', 'Liberation Sans', 'Bitstream Vera Sans', sans-serif; fill: #262626" transform="translate(338.804643 489.71992) rotate(-45)">Sep 2022</text>
     </g>
    </g>
    <g id="xtick_5">
     <g id="line2d_5">
      <path d="M 447.733591 441.256127 
L 447.733591 14.319884 
" clip-path="url(#p7aa5a39f1d)" style="fill: none; stroke-dasharray: 3.7,1.6; stroke-dashoffset: 0; stroke: #cccccc; stroke-opacity: 0.5"/>
     </g>
     <g id="text_5">
      <text style="font-size: 11px; font-family: 'Arial', 'DejaVu Sans', 'Liberation Sans', 'Bitstream Vera Sans', sans-serif; fill: #262626" transform="translate(433.097254 489.617831) rotate(-45)">Dec 2022</text>
     </g>
    </g>
    <g id="xtick_6">
     <g id="line2d_6">
      <path d="M 541.033292 441.256127 
L 541.033292 14.319884 
" clip-path="url(#p7aa5a39f1d)" style="fill: none; stroke-dasharray: 3.7,1.6; stroke-dashoffset: 0; stroke: #cccccc; stroke-opacity: 0.5"/>
     </g>
     <g id="text_6">
      <text style="font-size: 11px; font-family: 'Arial', 'DejaVu Sans', 'Liberation Sans', 'Bitstream Vera Sans', sans-serif; fill: #262626" transform="translate(526.615716 489.180309) rotate(-45)">Mar 2023</text>
     </g>
    </g>
    <g id="xtick_7">
     <g id="line2d_7">
      <path d="M 636.406319 441.256127 
L 636.406319 14.319884 
" clip-path="url(#p7aa5a39f1d)" style="fill: none; stroke-dasharray: 3.7,1.6; stroke-dashoffset: 0; stroke: #cccccc; stroke-opacity: 0.5"/>
     </g>
     <g id="text_7">
      <text style="font-size: 11px; font-family: 'Arial', 'DejaVu Sans', 'Liberation Sans', 'Bitstream Vera Sans', sans-serif; fill: #262626" transform="translate(622.415935 488.325925) rotate(-45)">Jun 2023</text>
     </g>
    </g>
    <g id="xtick_8">
     <g id="line2d_8">
      <path d="M 731.779346 441.256127 
L 731.779346 14.319884 
" clip-path="url(#p7aa5a39f1d)" style="fill: none; stroke-dasharray: 3.7,1.6; stroke-dashoffset: 0; stroke: #cccccc; stroke-opacity: 0.5"/>
     </g>
     <g id="text_8">
      <text style="font-size: 11px; font-family: 'Arial', 'DejaVu Sans', 'Liberation Sans', 'Bitstream Vera Sans', sans-serif; fill: #262626" transform="translate(717.186761 489.71992) rotate(-45)">Sep 2023</text>
     </g>
    </g>
    <g id="xtick_9">
     <g id="line2d_9">
      <path d="M 826.115709 441.256127 
L 826.115709 14.319884 
" clip-path="url(#p7aa5a39f1d)" style="fill: none; stroke-dasharray: 3.7,1.6; stroke-dashoffset: 0; stroke: #cccccc; stroke-opacity: 0.5"/>
     </g>
     <g id="text_9">
      <text style="font-size: 11px; font-family: 'Arial', 'DejaVu Sans', 'Liberation Sans', 'Bitstream Vera Sans', sans-serif; fill: #262626" transform="translate(811.479372 489.617831) rotate(-45)">Dec 2023</text>
     </g>
    </g>
    <g id="xtick_10">
     <g id="line2d_10">
      <path d="M 920.452073 441.256127 
L 920.452073 14.319884 
" clip-path="url(#p7aa5a39f1d)" style="fill: none; stroke-dasharray: 3.7,1.6; stroke-dashoffset: 0; stroke: #cccccc; stroke-opacity: 0.5"/>
     </g>
     <g id="text_10">
      <text style="font-size: 11px; font-family: 'Arial', 'DejaVu Sans', 'Liberation Sans', 'Bitstream Vera Sans', sans-serif; fill: #262626" transform="translate(906.034497 489.180309) rotate(-45)">Mar 2024</text>
     </g>
    </g>
   </g>
   <g id="matplotlib.axis_2">
    <g id="ytick_1">
     <g id="line2d_11">
      <path d="M 61.11 409.791172 
L 995.04 409.791172 
" clip-path="url(#p7aa5a39f1d)" style="fill: none; stroke-dasharray: 3.7,1.6; stroke-dashoffset: 0; stroke: #cccccc; stroke-opacity: 0.5"/>
     </g>
     <g id="text_11">
      <text style="font-size: 11px; font-family: 'Arial', 'DejaVu Sans', 'Liberation Sans', 'Bitstream Vera Sans', sans-serif; text-anchor: end; fill: #262626" x="51.61" y="413.727969" transform="rotate(-0 51.61 413.727969)">200</text>
     </g>
    </g>
    <g id="ytick_2">
     <g id="line2d_12">
      <path d="M 61.11 353.70391 
L 995.04 353.70391 
" clip-path="url(#p7aa5a39f1d)" style="fill: none; stroke-dasharray: 3.7,1.6; stroke-dashoffset: 0; stroke: #cccccc; stroke-opacity: 0.5"/>
     </g>
     <g id="text_12">
      <text style="font-size: 11px; font-family: 'Arial', 'DejaVu Sans', 'Liberation Sans', 'Bitstream Vera Sans', sans-serif; text-anchor: end; fill: #262626" x="51.61" y="357.640707" transform="rotate(-0 51.61 357.640707)">400</text>
     </g>
    </g>
    <g id="ytick_3">
     <g id="line2d_13">
      <path d="M 61.11 297.616647 
L 995.04 297.616647 
" clip-path="url(#p7aa5a39f1d)" style="fill: none; stroke-dasharray: 3.7,1.6; stroke-dashoffset: 0; stroke: #cccccc; stroke-opacity: 0.5"/>
     </g>
     <g id="text_13">
      <text style="font-size: 11px; font-family: 'Arial', 'DejaVu Sans', 'Liberation Sans', 'Bitstream Vera Sans', sans-serif; text-anchor: end; fill: #262626" x="51.61" y="301.553444" transform="rotate(-0 51.61 301.553444)">600</text>
     </g>
    </g>
    <g id="ytick_4">
     <g id="line2d_14">
      <path d="M 61.11 241.529385 
L 995.04 241.529385 
" clip-path="url(#p7aa5a39f1d)" style="fill: none; stroke-dasharray: 3.7,1.6; stroke-dashoffset: 0; stroke: #cccccc; stroke-opacity: 0.5"/>
     </g>
     <g id="text_14">
      <text style="font-size: 11px; font-family: 'Arial', 'DejaVu Sans', 'Liberation Sans', 'Bitstream Vera Sans', sans-serif; text-anchor: end; fill: #262626" x="51.61" y="245.466182" transform="rotate(-0 51.61 245.466182)">800</text>
     </g>
    </g>
    <g id="ytick_5">
     <g id="line2d_15">
      <path d="M 61.11 185.442122 
L 995.04 185.442122 
" clip-path="url(#p7aa5a39f1d)" style="fill: none; stroke-dasharray: 3.7,1.6; stroke-dashoffset: 0; stroke: #cccccc; stroke-opacity: 0.5"/>
     </g>
     <g id="text_15">
      <text style="font-size: 11px; font-family: 'Arial', 'DejaVu Sans', 'Liberation Sans', 'Bitstream Vera Sans', sans-serif; text-anchor: end; fill: #262626" x="51.61" y="189.378919" transform="rotate(-0 51.61 189.378919)">1000</text>
     </g>
    </g>
    <g id="ytick_6">
     <g id="line2d_16">
      <path d="M 61.11 129.35486 
L 995.04 129.35486 
" clip-path="url(#p7aa5a39f1d)" style="fill: none; stroke-dasharray: 3.7,1.6; stroke-dashoffset: 0; stroke: #cccccc; stroke-opacity: 0.5"/>
     </g>
     <g id="text_16">
      <text style="font-size: 11px; font-family: 'Arial', 'DejaVu Sans', 'Liberation Sans', 'Bitstream Vera Sans', sans-serif; text-anchor: end; fill: #262626" x="51.61" y="133.291657" transform="rotate(-0 51.61 133.291657)">1200</text>
     </g>
    </g>
    <g id="ytick_7">
     <g id="line2d_17">
      <path d="M 61.11 73.267597 
L 995.04 73.267597 
" clip-path="url(#p7aa5a39f1d)" style="fill: none; stroke-dasharray: 3.7,1.6; stroke-dashoffset: 0; stroke: #cccccc; stroke-opacity: 0.5"/>
     </g>
     <g id="text_17">
      <text style="font-size: 11px; font-family: 'Arial', 'DejaVu Sans', 'Liberation Sans', 'Bitstream Vera Sans', sans-serif; text-anchor: end; fill: #262626" x="51.61" y="77.204394" transform="rotate(-0 51.61 77.204394)">1400</text>
     </g>
    </g>
    <g id="ytick_8">
     <g id="line2d_18">
      <path d="M 61.11 17.180335 
L 995.04 17.180335 
" clip-path="url(#p7aa5a39f1d)" style="fill: none; stroke-dasharray: 3.7,1.6; stroke-dashoffset: 0; stroke: #cccccc; stroke-opacity: 0.5"/>
     </g>
     <g id="text_18">
      <text style="font-size: 11px; font-family: 'Arial', 'DejaVu Sans', 'Liberation Sans', 'Bitstream Vera Sans', sans-serif; text-anchor: end; fill: #262626" x="51.61" y="21.117132" transform="rotate(-0 51.61 21.117132)">1600</text>
     </g>
    </g>
    <g id="text_19">
     <text style="font-weight: 700; font-size: 11px; font-family: 'Arial', 'DejaVu Sans', 'Liberation Sans', 'Bitstream Vera Sans', sans-serif; text-anchor: middle; fill: #262626" x="20.826719" y="227.788006" transform="rotate(-90 20.826719 227.788006)">Jumlah Kapal Mingguan</text>
    </g>
   </g>
   <g id="line2d_19">
    <path d="M 103.561364 355.386528 
L 110.818007 356.227837 
L 118.07465 357.630018 
L 125.331294 355.386528 
L 132.587937 349.497365 
L 139.84458 341.645148 
L 147.101224 363.799617 
L 154.357867 346.973438 
L 161.61451 355.386528 
L 168.871154 348.656056 
L 176.127797 351.179983 
L 183.384441 355.106091 
L 190.641084 342.766894 
L 197.897727 342.486457 
L 205.154371 351.460419 
L 212.411014 348.936493 
L 219.667657 341.084276 
L 226.924301 345.290821 
L 234.180944 355.9474 
L 241.437587 353.143037 
L 248.694231 344.449512 
L 255.950874 341.645148 
L 263.207517 341.645148 
L 270.464161 341.084276 
L 277.720804 346.973438 
L 284.977448 333.232059 
L 292.234091 337.71904 
L 299.490734 335.195113 
L 306.747378 336.597295 
L 314.004021 339.121222 
L 321.260664 336.316859 
L 328.517308 336.877731 
L 335.773951 338.840785 
L 343.030594 338.840785 
L 350.287238 328.184205 
L 357.543881 341.364712 
L 364.800524 336.316859 
L 372.057168 342.486457 
L 379.313811 331.829878 
L 386.570455 345.571257 
L 393.827098 337.438604 
L 401.083741 334.914677 
L 408.340385 333.232059 
L 415.597028 323.416788 
L 422.853671 329.586387 
L 430.110315 342.766894 
L 437.366958 327.903769 
L 444.623601 338.840785 
L 451.880245 333.232059 
L 459.136888 336.877731 
L 466.393531 333.512495 
L 473.650175 327.342897 
L 480.906818 325.379842 
L 488.163462 339.682094 
L 495.420105 329.866823 
L 502.676748 336.316859 
L 509.933392 328.464642 
L 517.190035 342.206021 
L 524.446678 346.412566 
L 531.703322 338.560349 
L 538.959965 329.305951 
L 546.216608 338.560349 
L 553.473252 327.623333 
L 560.729895 338.840785 
L 567.986538 322.295043 
L 575.243182 330.708132 
L 582.499825 326.782024 
L 589.756469 326.782024 
L 597.013112 321.173298 
L 604.269755 325.660279 
L 611.526399 313.321081 
L 618.783042 316.966753 
L 626.039685 318.929807 
L 633.296329 314.723262 
L 640.552972 324.81897 
L 647.809615 325.940715 
L 655.066259 316.966753 
L 662.322902 321.173298 
L 669.579545 327.06246 
L 676.836189 330.14726 
L 684.092832 328.184205 
L 691.349476 329.025514 
L 698.606119 327.342897 
L 705.862762 332.110314 
L 713.119406 327.06246 
L 720.376049 335.755986 
L 727.632692 318.088498 
L 734.889336 328.745078 
L 742.145979 321.73417 
L 749.402622 319.49068 
L 756.659266 322.855916 
L 763.915909 320.892861 
L 771.172552 319.210243 
L 778.429196 313.040645 
L 785.685839 324.81897 
L 792.942483 317.808062 
L 800.199126 325.940715 
L 807.455769 322.855916 
L 814.712413 313.040645 
L 821.969056 324.81897 
L 829.225699 323.416788 
L 836.482343 326.221151 
L 843.738986 360.153945 
L 850.995629 365.482235 
L 858.252273 380.906232 
L 865.508916 385.112777 
L 872.765559 395.769357 
L 880.022203 402.499828 
L 887.278846 400.81721 
L 894.53549 401.938956 
L 901.792133 401.378083 
L 909.048776 398.293284 
L 916.30542 401.658519 
L 923.562063 406.425937 
L 930.818706 403.90201 
L 938.07535 407.828118 
L 945.331993 405.865064 
L 952.588636 410.912918 
" clip-path="url(#p7aa5a39f1d)" style="fill: none; stroke: #d3d3d3; stroke-opacity: 0.5; stroke-width: 1.5; stroke-linecap: round"/>
   </g>
   <g id="FillBetweenPolyCollection_1"/>
   <g id="line2d_20">
    <path d="M 103.561364 139.450567 
L 110.818007 95.702502 
L 118.07465 97.945993 
L 125.331294 112.528681 
L 132.587937 132.439659 
L 139.84458 103.554719 
L 147.101224 168.89638 
L 154.357867 111.967808 
L 161.61451 96.263375 
L 168.871154 106.639518 
L 176.127797 115.052608 
L 183.384441 100.750356 
L 190.641084 102.71341 
L 197.897727 124.587443 
L 205.154371 95.982939 
L 212.411014 122.624388 
L 219.667657 87.008977 
L 226.924301 98.506865 
L 234.180944 140.572312 
L 241.437587 94.580757 
L 248.694231 106.078646 
L 255.950874 101.591665 
L 263.207517 97.38512 
L 270.464161 79.437196 
L 277.720804 89.532903 
L 284.977448 101.591665 
L 292.234091 94.300321 
L 299.490734 97.38512 
L 306.747378 104.115592 
L 343.030594 106.639518 
L 350.287238 102.993846 
L 357.543881 99.909047 
L 372.057168 86.448104 
L 379.313811 97.104684 
L 386.570455 90.374212 
L 393.827098 89.81334 
L 401.083741 102.432974 
L 408.340385 88.972031 
L 415.597028 120.380898 
L 422.853671 73.267597 
L 430.110315 64.013199 
L 437.366958 125.148315 
L 444.623601 94.861193 
L 451.880245 87.850286 
L 459.136888 116.735226 
L 466.393531 107.200391 
L 473.650175 160.763727 
L 480.906818 111.687372 
L 488.163462 135.524459 
L 495.420105 105.517773 
L 502.676748 72.706725 
L 509.933392 69.621925 
L 517.190035 76.913269 
L 524.446678 79.998069 
L 531.703322 72.145852 
L 538.959965 85.326359 
L 546.216608 118.137407 
L 553.473252 90.374212 
L 560.729895 107.480827 
L 567.986538 99.628611 
L 575.243182 64.854508 
L 582.499825 106.639518 
L 589.756469 60.367527 
L 597.013112 58.404473 
L 604.269755 67.097998 
L 611.526399 87.850286 
L 618.783042 74.669779 
L 633.296329 84.48505 
L 640.552972 53.637055 
L 647.809615 92.617703 
L 655.066259 106.639518 
L 662.322902 109.443882 
L 669.579545 105.79821 
L 676.836189 94.861193 
L 684.092832 113.089554 
L 691.349476 90.935085 
L 698.606119 109.443882 
L 705.862762 107.200391 
L 713.119406 112.809117 
L 720.376049 112.528681 
L 727.632692 96.824248 
L 734.889336 96.824248 
L 742.145979 104.115592 
L 749.402622 108.883009 
L 756.659266 85.606795 
L 778.429196 120.94177 
L 785.685839 101.872101 
L 800.199126 95.982939 
L 807.455769 102.71341 
L 814.712413 97.38512 
L 821.969056 97.665556 
L 829.225699 116.735226 
L 836.482343 73.548034 
L 843.738986 118.69828 
L 850.995629 148.424529 
L 858.252273 119.259153 
L 865.508916 118.978716 
L 872.765559 116.735226 
L 880.022203 109.443882 
L 887.278846 61.208836 
L 894.53549 118.137407 
L 901.792133 103.835155 
L 909.048776 159.081109 
L 916.30542 128.233115 
L 923.562063 108.0417 
L 930.818706 101.311229 
L 938.07535 112.248245 
L 945.331993 164.409399 
L 952.588636 161.044163 
" clip-path="url(#p7aa5a39f1d)" style="fill: none; stroke: #d3d3d3; stroke-opacity: 0.5; stroke-width: 1.5; stroke-linecap: round"/>
   </g>
   <g id="FillBetweenPolyCollection_2"/>
   <g id="line2d_21">
    <path d="M 103.561364 337.71904 
L 110.818007 327.903769 
L 118.07465 343.888639 
L 125.331294 316.40588 
L 132.587937 303.786246 
L 139.84458 306.029737 
L 147.101224 292.007921 
L 154.357867 278.546978 
L 161.61451 302.944937 
L 168.871154 273.499124 
L 176.127797 298.738393 
L 183.384441 263.683854 
L 190.641084 281.631778 
L 197.897727 260.318618 
L 205.154371 270.694761 
L 212.411014 269.29258 
L 219.667657 277.425233 
L 226.924301 257.794691 
L 234.180944 321.173298 
L 241.437587 261.159927 
L 248.694231 282.753523 
L 255.950874 267.890398 
L 263.207517 272.377379 
L 270.464161 274.340433 
L 277.720804 285.557886 
L 284.977448 281.070905 
L 292.234091 297.616647 
L 299.490734 274.901306 
L 306.747378 297.897084 
L 314.004021 295.653593 
L 321.260664 269.012143 
L 328.517308 271.816507 
L 335.773951 257.794691 
L 343.030594 261.720799 
L 350.287238 263.403417 
L 357.543881 288.362249 
L 364.800524 266.768653 
L 372.057168 279.668723 
L 379.313811 313.040645 
L 386.570455 285.27745 
L 393.827098 268.731707 
L 401.083741 260.038181 
L 408.340385 262.562108 
L 415.597028 308.273227 
L 422.853671 298.17752 
L 430.110315 316.966753 
L 437.366958 329.025514 
L 444.623601 300.140574 
L 451.880245 322.575479 
L 459.136888 331.269005 
L 466.393531 332.671186 
L 473.650175 323.697224 
L 480.906818 326.221151 
L 488.163462 340.242967 
L 495.420105 325.099406 
L 502.676748 329.025514 
L 509.933392 331.269005 
L 517.190035 307.992791 
L 524.446678 309.394972 
L 531.703322 290.60574 
L 538.959965 312.760208 
L 546.216608 265.366471 
L 553.473252 283.033959 
L 560.729895 334.914677 
L 567.986538 303.50581 
L 575.243182 281.070905 
L 582.499825 273.218688 
L 589.756469 269.012143 
L 597.013112 299.299265 
L 604.269755 276.023051 
L 611.526399 254.709892 
L 618.783042 273.779561 
L 626.039685 254.709892 
L 633.296329 248.820729 
L 640.552972 257.233818 
L 647.809615 286.960067 
L 655.066259 253.027274 
L 662.322902 267.049089 
L 669.579545 256.672946 
L 676.836189 276.023051 
L 684.092832 275.742615 
L 691.349476 297.897084 
L 698.606119 259.477309 
L 705.862762 260.038181 
L 713.119406 267.329526 
L 720.376049 265.086035 
L 727.632692 282.473086 
L 734.889336 267.329526 
L 742.145979 277.425233 
L 749.402622 258.355564 
L 756.659266 254.709892 
L 763.915909 259.757745 
L 771.172552 248.820729 
L 778.429196 314.442826 
L 785.685839 324.81897 
L 792.942483 291.166612 
L 800.199126 316.40588 
L 807.455769 329.586387 
L 814.712413 353.984346 
L 821.969056 330.708132 
L 829.225699 323.416788 
L 836.482343 342.206021 
L 843.738986 350.058238 
L 850.995629 313.040645 
L 858.252273 336.036422 
L 865.508916 345.571257 
L 872.765559 325.660279 
L 880.022203 328.184205 
L 887.278846 343.04733 
L 894.53549 336.877731 
L 901.792133 338.560349 
L 909.048776 337.438604 
L 916.30542 339.962531 
L 923.562063 346.693002 
L 930.818706 304.066683 
L 938.07535 313.040645 
L 945.331993 336.877731 
L 952.588636 313.321081 
" clip-path="url(#p7aa5a39f1d)" style="fill: none; stroke: #d3d3d3; stroke-opacity: 0.5; stroke-width: 1.5; stroke-linecap: round"/>
   </g>
   <g id="FillBetweenPolyCollection_3"/>
   <g id="line2d_22">
    <path d="M 103.561364 198.903065 
L 110.818007 210.961827 
L 118.07465 198.061756 
L 125.331294 190.20954 
L 132.587937 200.585683 
L 139.84458 148.144093 
L 147.101224 182.357323 
L 154.357867 182.076887 
L 161.61451 183.198632 
L 168.871154 120.380898 
L 176.127797 160.763727 
L 183.384441 180.674705 
L 190.641084 120.94177 
L 197.897727 60.087091 
L 205.154371 145.900602 
L 212.411014 162.726781 
L 219.667657 153.472383 
L 226.924301 94.019884 
L 234.180944 208.718336 
L 241.437587 121.502643 
L 248.694231 116.454789 
L 255.950874 73.82847 
L 263.207517 101.030792 
L 270.464161 111.406936 
L 277.720804 104.956901 
L 284.977448 104.396028 
L 292.234091 95.14163 
L 299.490734 94.861193 
L 306.747378 83.363305 
L 314.004021 62.611017 
L 321.260664 103.835155 
L 328.517308 99.909047 
L 335.773951 98.226429 
L 343.030594 121.222207 
L 350.287238 46.345711 
L 357.543881 55.880546 
L 364.800524 99.348174 
L 372.057168 139.731003 
L 379.313811 114.772172 
L 386.570455 143.096239 
L 393.827098 177.029033 
L 401.083741 162.165908 
L 408.340385 159.641982 
L 415.597028 133.841841 
L 422.853671 113.930863 
L 430.110315 138.609258 
L 437.366958 105.517773 
L 444.623601 142.25493 
L 451.880245 130.476605 
L 459.136888 129.35486 
L 466.393531 159.081109 
L 473.650175 139.170131 
L 480.906818 121.222207 
L 488.163462 143.376675 
L 495.420105 165.250708 
L 502.676748 180.955141 
L 509.933392 150.387583 
L 517.190035 112.248245 
L 524.446678 127.391806 
L 531.703322 158.2398 
L 538.959965 102.152537 
L 546.216608 75.511088 
L 553.473252 101.030792 
L 560.729895 115.893917 
L 567.986538 94.019884 
L 575.243182 105.79821 
L 582.499825 79.437196 
L 589.756469 110.846063 
L 597.013112 108.602573 
L 604.269755 83.082868 
L 611.526399 97.38512 
L 618.783042 167.213762 
L 626.039685 76.352397 
L 633.296329 33.726077 
L 640.552972 94.019884 
L 647.809615 105.517773 
L 655.066259 116.174353 
L 662.322902 109.724318 
L 669.579545 114.772172 
L 676.836189 88.691594 
L 684.092832 97.945993 
L 691.349476 136.365768 
L 698.606119 41.578294 
L 705.862762 77.474142 
L 713.119406 157.398491 
L 720.376049 124.02657 
L 727.632692 211.803136 
L 734.889336 135.244022 
L 742.145979 90.093776 
L 749.402622 167.213762 
L 756.659266 166.372453 
L 763.915909 240.688076 
L 771.172552 213.76619 
L 778.429196 175.065979 
L 785.685839 162.165908 
L 792.942483 111.967808 
L 800.199126 157.118055 
L 807.455769 173.102925 
L 814.712413 178.150778 
L 821.969056 160.483291 
L 829.225699 79.437196 
L 836.482343 174.785542 
L 843.738986 194.696521 
L 850.995629 148.424529 
L 858.252273 112.248245 
L 865.508916 129.635296 
L 872.765559 153.191946 
L 880.022203 191.892158 
L 887.278846 145.900602 
L 894.53549 159.361545 
L 901.792133 161.324599 
L 909.048776 222.459716 
L 916.30542 125.989624 
L 923.562063 108.883009 
L 930.818706 76.913269 
L 938.07535 105.79821 
L 945.331993 104.396028 
L 952.588636 135.524459 
" clip-path="url(#p7aa5a39f1d)" style="fill: none; stroke: #d3d3d3; stroke-opacity: 0.5; stroke-width: 1.5; stroke-linecap: round"/>
   </g>
   <g id="FillBetweenPolyCollection_4"/>
   <g id="FillBetweenPolyCollection_5"/>
   <g id="FillBetweenPolyCollection_6"/>
   <g id="line2d_23">
    <path d="M 795.015809 441.256127 
L 795.015809 14.319884 
" clip-path="url(#p7aa5a39f1d)" style="fill: none; stroke-dasharray: 5.55,2.4; stroke-dashoffset: 0; stroke: #333333; stroke-width: 1.5"/>
   </g>
   <g id="patch_3">
    <path d="M 61.11 441.256127 
L 61.11 14.319884 
" style="fill: none; stroke: #cccccc; stroke-width: 1.25; stroke-linejoin: miter; stroke-linecap: square"/>
   </g>
   <g id="patch_4">
    <path d="M 61.11 441.256127 
L 995.04 441.256127 
" style="fill: none; stroke: #cccccc; stroke-width: 1.25; stroke-linejoin: miter; stroke-linecap: square"/>
   </g>
   <g id="FillBetweenPolyCollection_7">
    <defs>
     <path id="mb2581d6162" d="M 800.199126 -143.004746 
L 800.199126 -169.085323 
L 807.455769 -169.646196 
L 814.712413 -165.159215 
L 821.969056 -164.598342 
L 829.225699 -157.867871 
L 836.482343 -164.878778 
L 843.738986 -152.259144 
L 850.995629 -133.750348 
L 858.252273 -126.73944 
L 865.508916 -116.643733 
L 872.765559 -114.119806 
L 880.022203 -105.987153 
L 887.278846 -100.09799 
L 894.53549 -104.865407 
L 901.792133 -97.013191 
L 909.048776 -103.463226 
L 923.562063 -95.050137 
L 930.818706 -85.515302 
L 938.07535 -87.478356 
L 945.331993 -82.150066 
L 945.331993 -219.283423 
L 945.331993 -219.283423 
L 938.07535 -208.065971 
L 930.818706 -221.80735 
L 923.562063 -228.537821 
L 909.048776 -227.13564 
L 901.792133 -230.500876 
L 894.53549 -214.235569 
L 887.278846 -219.844296 
L 880.022203 -206.663789 
L 872.765559 -194.885464 
L 865.508916 -200.213754 
L 858.252273 -204.139862 
L 850.995629 -179.741903 
L 843.738986 -148.333036 
L 836.482343 -158.428743 
L 829.225699 -146.650418 
L 821.969056 -142.163437 
L 814.712413 -148.333036 
L 807.455769 -155.063507 
L 800.199126 -143.004746 
z
" style="stroke: #e63946; stroke-opacity: 0.85"/>
    </defs>
    <g clip-path="url(#p7aa5a39f1d)">
     <use xlink:href="#mb2581d6162" x="0" y="504" style="fill: #e63946; fill-opacity: 0.85; stroke: #e63946; stroke-opacity: 0.85"/>
    </g>
   </g>
   <g id="line2d_24">
    <path d="M 103.561364 359.0322 
L 110.818007 373.614888 
L 118.07465 370.249652 
L 125.331294 367.164853 
L 132.587937 361.836563 
L 139.84458 353.70391 
L 147.101224 373.054015 
L 154.357867 366.884417 
L 161.61451 359.312636 
L 168.871154 366.323544 
L 176.127797 364.080053 
L 183.384441 363.799617 
L 190.641084 360.995254 
L 197.897727 352.301728 
L 205.154371 360.153945 
L 212.411014 347.534311 
L 219.667657 356.788709 
L 226.924301 356.788709 
L 234.180944 382.58885 
L 241.437587 353.143037 
L 248.694231 363.519181 
L 255.950874 352.862601 
L 263.207517 352.301728 
L 270.464161 354.545219 
L 277.720804 354.545219 
L 284.977448 333.232059 
L 292.234091 350.338674 
L 299.490734 344.449512 
L 306.747378 354.545219 
L 314.004021 339.121222 
L 321.260664 341.084276 
L 328.517308 348.37562 
L 335.773951 350.899547 
L 343.030594 346.132129 
L 350.287238 341.925585 
L 357.543881 345.851693 
L 364.800524 345.851693 
L 372.057168 351.460419 
L 379.313811 344.449512 
L 386.570455 352.301728 
L 393.827098 357.349582 
L 401.083741 343.327766 
L 408.340385 348.095184 
L 415.597028 331.829878 
L 422.853671 350.61911 
L 430.110315 357.349582 
L 437.366958 346.693002 
L 444.623601 336.877731 
L 451.880245 336.036422 
L 459.136888 348.936493 
L 466.393531 345.010384 
L 473.650175 345.571257 
L 480.906818 341.645148 
L 488.163462 345.010384 
L 495.420105 346.412566 
L 502.676748 346.132129 
L 509.933392 343.608203 
L 517.190035 350.899547 
L 524.446678 375.577942 
L 531.703322 347.253875 
L 538.959965 354.825655 
L 546.216608 334.353804 
L 553.473252 337.71904 
L 560.729895 344.729948 
L 567.986538 342.206021 
L 575.243182 332.671186 
L 582.499825 336.036422 
L 589.756469 329.866823 
L 597.013112 328.745078 
L 604.269755 330.988569 
L 611.526399 342.766894 
L 618.783042 321.73417 
L 626.039685 334.353804 
L 633.296329 340.523403 
L 640.552972 343.04733 
L 647.809615 343.04733 
L 655.066259 332.671186 
L 662.322902 336.036422 
L 669.579545 353.70391 
L 676.836189 341.084276 
L 684.092832 343.327766 
L 691.349476 350.899547 
L 698.606119 352.582165 
L 705.862762 353.423474 
L 713.119406 341.364712 
L 720.376049 352.582165 
L 727.632692 348.095184 
L 734.889336 347.253875 
L 742.145979 356.227837 
L 749.402622 357.069146 
L 756.659266 338.840785 
L 763.915909 337.999476 
L 771.172552 332.671186 
L 778.429196 340.523403 
L 785.685839 336.597295 
L 792.942483 334.634241 
L 800.199126 334.914677 
L 807.455769 334.353804 
L 814.712413 338.840785 
L 821.969056 339.401658 
L 829.225699 346.132129 
L 836.482343 339.121222 
L 843.738986 351.740856 
L 850.995629 370.249652 
L 858.252273 377.26056 
L 865.508916 387.356267 
L 872.765559 389.880194 
L 880.022203 398.012847 
L 887.278846 403.90201 
L 894.53549 399.134593 
L 901.792133 406.986809 
L 909.048776 400.536774 
L 916.30542 406.425937 
L 923.562063 408.949863 
L 930.818706 418.484698 
L 938.07535 416.521644 
L 945.331993 421.849934 
L 952.588636 421.008625 
" clip-path="url(#p7aa5a39f1d)" style="fill: none; stroke: #e63946; stroke-width: 3; stroke-linecap: round"/>
   </g>
   <g id="line2d_25">
    <path d="M 103.561364 370.249652 
L 110.818007 375.01707 
L 118.07465 378.101869 
L 125.331294 369.969216 
L 132.587937 368.286598 
L 139.84458 371.651834 
L 147.101224 364.36049 
L 154.357867 378.382305 
L 161.61451 373.614888 
L 168.871154 377.540996 
L 176.127797 372.212707 
L 183.384441 378.662742 
L 190.641084 385.393213 
L 197.897727 371.93227 
L 205.154371 380.34536 
L 212.411014 369.408343 
L 219.667657 366.043108 
L 226.924301 363.238745 
L 234.180944 381.186669 
L 241.437587 369.969216 
L 248.694231 369.127907 
L 255.950874 372.493143 
L 263.207517 363.238745 
L 270.464161 382.027977 
L 277.720804 364.640926 
L 284.977448 360.995254 
L 292.234091 378.943178 
L 299.490734 364.640926 
L 306.747378 372.493143 
L 314.004021 366.884417 
L 321.260664 367.725726 
L 328.517308 372.212707 
L 335.773951 376.419251 
L 343.030594 361.556127 
L 350.287238 373.054015 
L 357.543881 357.069146 
L 364.800524 373.054015 
L 372.057168 372.773579 
L 379.313811 366.60398 
L 386.570455 375.297506 
L 393.827098 378.662742 
L 401.083741 370.249652 
L 408.340385 367.725726 
L 415.597028 364.921362 
L 422.853671 376.980124 
L 430.110315 375.297506 
L 437.366958 373.054015 
L 444.623601 366.884417 
L 451.880245 371.090961 
L 459.136888 377.26056 
L 466.393531 370.530089 
L 473.650175 376.138815 
L 480.906818 373.895324 
L 488.163462 353.70391 
L 495.420105 380.625796 
L 502.676748 371.371398 
L 509.933392 362.677872 
L 517.190035 369.969216 
L 524.446678 377.540996 
L 531.703322 374.175761 
L 538.959965 378.662742 
L 546.216608 369.408343 
L 553.473252 357.630018 
L 560.729895 375.297506 
L 567.986538 368.567034 
L 575.243182 370.810525 
L 582.499825 370.530089 
L 589.756469 360.153945 
L 597.013112 372.212707 
L 604.269755 363.799617 
L 611.526399 358.190891 
L 618.783042 361.556127 
L 626.039685 361.836563 
L 633.296329 357.069146 
L 640.552972 361.836563 
L 647.809615 372.212707 
L 655.066259 346.973438 
L 662.322902 367.725726 
L 669.579545 371.090961 
L 676.836189 353.423474 
L 684.092832 351.179983 
L 691.349476 363.238745 
L 698.606119 344.729948 
L 705.862762 357.349582 
L 713.119406 352.301728 
L 720.376049 367.725726 
L 727.632692 341.364712 
L 734.889336 360.153945 
L 756.659266 346.973438 
L 763.915909 359.0322 
L 771.172552 355.106091 
L 778.429196 354.825655 
L 785.685839 362.116999 
L 792.942483 355.9474 
L 800.199126 360.995254 
L 807.455769 348.936493 
L 814.712413 355.666964 
L 821.969056 361.836563 
L 829.225699 357.349582 
L 836.482343 345.571257 
L 843.738986 355.666964 
L 850.995629 324.258097 
L 858.252273 299.860138 
L 865.508916 303.786246 
L 872.765559 309.114536 
L 880.022203 297.336211 
L 887.278846 284.155704 
L 894.53549 289.764431 
L 901.792133 273.499124 
L 909.048776 276.86436 
L 923.562063 275.462179 
L 930.818706 282.19265 
L 938.07535 295.934029 
L 945.331993 284.716577 
" clip-path="url(#p7aa5a39f1d)" style="fill: none; stroke: #1d3557; stroke-width: 3; stroke-linecap: round"/>
   </g>
   <g id="legend_1">
    <g id="patch_5">
     <path d="M 70.81 437.756127 
L 228.603281 437.756127 
Q 230.803281 437.756127 230.803281 435.556127 
L 230.803281 405.010502 
Q 230.803281 402.810502 228.603281 402.810502 
L 70.81 402.810502 
Q 68.61 402.810502 68.61 405.010502 
L 68.61 435.556127 
Q 68.61 437.756127 70.81 437.756127 
z
" style="fill: #4d4d4d; opacity: 0.5; stroke: #4d4d4d; stroke-linejoin: miter"/>
    </g>
    <g id="patch_6">
     <path d="M 68.81 435.756127 
L 226.603281 435.756127 
Q 228.803281 435.756127 228.803281 433.556127 
L 228.803281 403.010502 
Q 228.803281 400.810502 226.603281 400.810502 
L 68.81 400.810502 
Q 66.61 400.810502 66.61 403.010502 
L 66.61 433.556127 
Q 66.61 435.756127 68.81 435.756127 
z
" style="fill: #ffffff; stroke: #cccccc; stroke-linejoin: miter"/>
    </g>
    <g id="line2d_26">
     <path d="M 71.01 409.368158 
L 82.01 409.368158 
L 93.01 409.368158 
" style="fill: none; stroke: #e63946; stroke-width: 3; stroke-linecap: round"/>
    </g>
    <g id="text_20">
     <text style="font-size: 11px; font-family: 'Arial', 'DejaVu Sans', 'Liberation Sans', 'Bitstream Vera Sans', sans-serif; text-anchor: start; fill: #262626" x="101.81" y="413.218158" transform="rotate(-0 101.81 413.218158)">Terusan Suez (-38%)</text>
    </g>
    <g id="line2d_27">
     <path d="M 71.01 425.19097 
L 82.01 425.19097 
L 93.01 425.19097 
" style="fill: none; stroke: #1d3557; stroke-width: 3; stroke-linecap: round"/>
    </g>
    <g id="text_21">
     <text style="font-size: 11px; font-family: 'Arial', 'DejaVu Sans', 'Liberation Sans', 'Bitstream Vera Sans', sans-serif; text-anchor: start; fill: #262626" x="101.81" y="429.04097" transform="rotate(-0 101.81 429.04097)">Tanjung Harapan (+65%)</text>
    </g>
   </g>
  </g>
 </g>
 <defs>
  <clipPath id="p7aa5a39f1d">
   <rect x="61.11" y="14.319884" width="933.93" height="426.936242"/>
  </clipPath>
 </defs>
</svg>
