<?xml version="1.0" encoding="utf-8" standalone="no"?>
<!DOCTYPE svg PUBLIC "-//W3C//DTD SVG 1.1//EN"
  "http://www.w3.org/Graphics/SVG/1.1/DTD/svg11.dtd">
<svg xmlns:xlink="http://www.w3.org/1999/xlink" width="1008pt" height="504pt" viewBox="0 0 1008 504" xmlns="http://www.w3.org/2000/svg" version="1.1">
 <metadata>
  <rdf:RDF xmlns:dc="http://purl.org/dc/elements/1.1/" xmlns:cc="http://creativecommons.org/ns#" xmlns:rdf="http://www.w3.org/1999/02/22-rdf-syntax-ns#">
   <cc:Work>
    <dc:type rdf:resource="http://purl.org/dc/dcmitype/StillImage"/>
    <dc:date>2026-03-14T23:27:30.068543</dc:date>
    <dc:format>image/svg+xml</dc:format>
    <dc:creator>
     <cc:Agent>
      <dc:title>Matplotlib v3.10.8, https://matplotlib.org/</dc:title>
     </cc:Agent>
    </dc:creator>
   </cc:Work>
  </rdf:RDF>
 </metadata>
 <defs>
  <style type="text/css">*{stroke-linejoin: round; stroke-linecap: butt}</style>
 </defs>
 <g id="figure_1">
  <g id="patch_1">
   <path d="M 0 504 
L 1008 504 
L 1008 0 
L 0 0 
L 0 504 
z
" style="fill: none"/>
  </g>
  <g id="axes_1">
   <g id="patch_2">
    <path d="M 43.18 445.279731 
L 997.2 445.279731 
L 997.2 12.159884 
L 43.18 12.159884 
L 43.18 445.279731 
z
" style="fill: none"/>
   </g>
   <g id="line2d_1">
    <path d="M 86.544545 358.166425 
L 93.957288 359.019919 
L 101.370031 360.442409 
L 108.782774 358.166425 
L 116.195517 352.191965 
L 123.60826 344.22602 
L 131.021002 366.701366 
L 138.433745 349.631483 
L 145.846488 358.166425 
L 153.259231 351.338471 
L 160.671974 353.898954 
L 168.084716 357.881927 
L 175.497459 345.364012 
L 182.910202 345.079514 
L 190.322945 354.183452 
L 197.735688 351.622969 
L 205.14843 343.657024 
L 212.561173 347.924495 
L 219.973916 358.735421 
L 227.386659 355.89044 
L 234.799402 347.071 
L 242.212145 344.22602 
L 249.624887 344.22602 
L 257.03763 343.657024 
L 264.450373 349.631483 
L 271.863116 335.691078 
L 279.275859 340.243047 
L 286.688601 337.682564 
L 294.101344 339.105055 
L 301.514087 341.665537 
L 308.92683 338.820557 
L 316.339573 339.389553 
L 323.752315 341.381039 
L 331.165058 341.381039 
L 338.577801 330.570113 
L 345.990544 343.941522 
L 353.403287 338.820557 
L 360.81603 345.079514 
L 368.228772 334.268588 
L 375.641515 348.208993 
L 383.054258 339.958549 
L 390.467001 337.398066 
L 397.879744 335.691078 
L 405.292486 325.733646 
L 412.705229 331.992603 
L 420.117972 345.364012 
L 427.530715 330.285615 
L 434.943458 341.381039 
L 442.3562 335.691078 
L 449.768943 339.389553 
L 457.181686 335.975576 
L 464.594429 329.716619 
L 472.007172 327.725132 
L 479.419915 342.234533 
L 486.832657 332.277101 
L 494.2454 338.820557 
L 501.658143 330.854611 
L 509.070886 344.795016 
L 516.483629 349.062487 
L 523.896371 341.096541 
L 531.309114 331.708105 
L 538.721857 341.096541 
L 546.1346 330.001117 
L 553.547343 341.381039 
L 560.960085 324.595654 
L 568.372828 333.130595 
L 575.785571 329.147623 
L 583.198314 329.147623 
L 590.611057 323.457661 
L 598.0238 328.00963 
L 605.436542 315.491716 
L 612.849285 319.19019 
L 620.262028 321.181677 
L 627.674771 316.914206 
L 635.087514 327.156136 
L 642.500256 328.294128 
L 649.912999 319.19019 
L 657.325742 323.457661 
L 664.738485 329.432121 
L 672.151228 332.561599 
L 679.56397 330.570113 
L 686.976713 331.423607 
L 694.389456 329.716619 
L 701.802199 334.553086 
L 709.214942 329.432121 
L 716.627685 338.25156 
L 724.040427 320.328183 
L 731.45317 331.139109 
L 738.865913 324.026658 
L 746.278656 321.750673 
L 753.691399 325.16465 
L 761.104141 323.173163 
L 768.516884 321.466175 
L 775.929627 315.207218 
L 783.34237 327.156136 
L 790.755113 320.043685 
L 798.167855 328.294128 
L 805.580598 325.16465 
L 812.993341 315.207218 
L 820.406084 327.156136 
L 827.818827 325.733646 
L 835.23157 328.578626 
L 842.644312 363.002892 
L 850.057055 368.408355 
L 857.469798 384.055748 
L 864.882541 388.323219 
L 872.295284 399.134145 
L 879.708026 405.962099 
L 887.120769 404.25511 
L 894.533512 405.393103 
L 901.946255 404.824106 
L 909.358998 401.694628 
L 916.77174 405.108605 
L 924.184483 409.945072 
L 931.597226 407.384589 
L 939.009969 411.367562 
L 946.422712 409.376075 
L 953.835455 414.497041 
" clip-path="url(#pac6bcf8d19)" style="fill: none; stroke: #b0b0b0; stroke-opacity: 0.4; stroke-width: 1.5; stroke-linecap: square"/>
   </g>
   <g id="line2d_2">
    <path d="M 86.544545 139.102919 
L 93.957288 94.721221 
L 101.370031 96.997206 
L 108.782774 111.791105 
L 116.195517 131.990467 
L 123.60826 102.687167 
L 131.021002 168.975215 
L 138.433745 111.222109 
L 145.846488 95.290217 
L 153.259231 105.816646 
L 160.671974 114.351587 
L 168.084716 99.842186 
L 175.497459 101.833673 
L 182.910202 124.024521 
L 190.322945 95.005719 
L 197.735688 122.033035 
L 205.14843 85.901781 
L 212.561173 97.566202 
L 219.973916 140.240911 
L 227.386659 93.583229 
L 234.799402 105.24765 
L 242.212145 100.695681 
L 249.624887 96.42821 
L 257.03763 78.220334 
L 264.450373 88.462264 
L 271.863116 100.695681 
L 279.275859 93.298731 
L 286.688601 96.42821 
L 294.101344 103.256163 
L 331.165058 105.816646 
L 338.577801 102.118171 
L 345.990544 98.988692 
L 360.81603 85.332785 
L 368.228772 96.143712 
L 375.641515 89.315758 
L 383.054258 88.746762 
L 390.467001 101.549175 
L 397.879744 87.893268 
L 405.292486 119.757051 
L 412.705229 71.961377 
L 420.117972 62.572941 
L 427.530715 124.593518 
L 434.943458 93.867727 
L 442.3562 86.755276 
L 449.768943 116.058576 
L 457.181686 106.385642 
L 464.594429 160.724771 
L 472.007172 110.937611 
L 479.419915 135.119946 
L 486.832657 104.678653 
L 494.2454 71.39238 
L 501.658143 68.262902 
L 509.070886 75.659851 
L 516.483629 78.78933 
L 523.896371 70.823384 
L 531.309114 84.194793 
L 538.721857 117.481066 
L 546.1346 89.315758 
L 553.547343 106.67014 
L 560.960085 98.704194 
L 568.372828 63.426435 
L 575.785571 105.816646 
L 583.198314 58.874466 
L 590.611057 56.882979 
L 598.0238 65.702419 
L 605.436542 86.755276 
L 612.849285 73.383867 
L 627.674771 83.341299 
L 635.087514 52.046512 
L 642.500256 91.591743 
L 649.912999 105.816646 
L 657.325742 108.661626 
L 664.738485 104.963151 
L 672.151228 93.867727 
L 679.56397 112.360101 
L 686.976713 89.884754 
L 694.389456 108.661626 
L 701.802199 106.385642 
L 709.214942 112.075603 
L 716.627685 111.791105 
L 724.040427 95.859214 
L 731.45317 95.859214 
L 738.865913 103.256163 
L 746.278656 108.09263 
L 753.691399 84.479291 
L 775.929627 120.326047 
L 783.34237 100.980179 
L 798.167855 95.005719 
L 805.580598 101.833673 
L 812.993341 96.42821 
L 820.406084 96.712708 
L 827.818827 116.058576 
L 835.23157 72.245875 
L 842.644312 118.050062 
L 850.057055 148.206857 
L 857.469798 118.619058 
L 864.882541 118.33456 
L 872.295284 116.058576 
L 879.708026 108.661626 
L 887.120769 59.72796 
L 894.533512 117.481066 
L 901.946255 102.971665 
L 909.358998 159.017783 
L 916.77174 127.722996 
L 924.184483 107.239136 
L 931.597226 100.411183 
L 939.009969 111.506607 
L 946.422712 164.423246 
L 953.835455 161.009269 
" clip-path="url(#pac6bcf8d19)" style="fill: none; stroke: #b0b0b0; stroke-opacity: 0.4; stroke-width: 1.5; stroke-linecap: square"/>
   </g>
   <g id="line2d_3">
    <path d="M 86.544545 340.243047 
L 93.957288 330.285615 
L 101.370031 346.502004 
L 108.782774 318.621194 
L 116.195517 305.818782 
L 123.60826 308.094766 
L 131.021002 293.869863 
L 138.433745 280.213956 
L 145.846488 304.965287 
L 153.259231 275.092991 
L 160.671974 300.697817 
L 168.084716 265.135559 
L 175.497459 283.343435 
L 182.910202 261.721582 
L 190.322945 272.248011 
L 197.735688 270.82552 
L 205.14843 279.075964 
L 212.561173 259.1611 
L 219.973916 323.457661 
L 227.386659 262.575077 
L 234.799402 284.481427 
L 242.212145 269.40303 
L 249.624887 273.954999 
L 257.03763 275.946485 
L 264.450373 287.326408 
L 271.863116 282.774439 
L 279.275859 299.559824 
L 286.688601 276.515482 
L 294.101344 299.844322 
L 301.514087 297.568338 
L 308.92683 270.541022 
L 316.339573 273.386003 
L 323.752315 259.1611 
L 331.165058 263.144073 
L 338.577801 264.851061 
L 345.990544 290.171388 
L 353.403287 268.265038 
L 360.81603 281.351949 
L 368.228772 315.207218 
L 375.641515 287.04191 
L 383.054258 270.256524 
L 390.467001 261.437084 
L 397.879744 263.997567 
L 405.292486 310.370751 
L 412.705229 300.12882 
L 420.117972 319.19019 
L 427.530715 331.423607 
L 434.943458 302.120307 
L 442.3562 324.880152 
L 449.768943 333.699592 
L 457.181686 335.122082 
L 464.594429 326.018144 
L 472.007172 328.578626 
L 479.419915 342.803529 
L 486.832657 327.440634 
L 494.2454 331.423607 
L 501.658143 333.699592 
L 509.070886 310.086253 
L 516.483629 311.508743 
L 523.896371 292.447373 
L 531.309114 314.92272 
L 538.721857 266.842547 
L 546.1346 284.765925 
L 553.547343 337.398066 
L 560.960085 305.534284 
L 568.372828 282.774439 
L 575.785571 274.808493 
L 583.198314 270.541022 
L 590.611057 301.266813 
L 598.0238 277.653474 
L 605.436542 256.031621 
L 612.849285 275.377489 
L 620.262028 256.031621 
L 627.674771 250.057162 
L 635.087514 258.592104 
L 642.500256 288.748898 
L 649.912999 254.324633 
L 657.325742 268.549536 
L 664.738485 258.023108 
L 672.151228 277.653474 
L 679.56397 277.368976 
L 686.976713 299.844322 
L 694.389456 260.868088 
L 701.802199 261.437084 
L 709.214942 268.834034 
L 716.627685 266.558049 
L 724.040427 284.196929 
L 731.45317 268.834034 
L 738.865913 279.075964 
L 746.278656 259.730096 
L 753.691399 256.031621 
L 761.104141 261.152586 
L 768.516884 250.057162 
L 775.929627 316.629708 
L 783.34237 327.156136 
L 790.755113 293.016369 
L 798.167855 318.621194 
L 805.580598 331.992603 
L 812.993341 356.743934 
L 820.406084 333.130595 
L 827.818827 325.733646 
L 835.23157 344.795016 
L 842.644312 352.760962 
L 850.057055 315.207218 
L 857.469798 338.536059 
L 864.882541 348.208993 
L 872.295284 328.00963 
L 879.708026 330.570113 
L 887.120769 345.64851 
L 894.533512 339.389553 
L 901.946255 341.096541 
L 909.358998 339.958549 
L 916.77174 342.519031 
L 924.184483 349.346985 
L 931.597226 306.10328 
L 939.009969 315.207218 
L 946.422712 339.389553 
L 953.835455 315.491716 
" clip-path="url(#pac6bcf8d19)" style="fill: none; stroke: #b0b0b0; stroke-opacity: 0.4; stroke-width: 1.5; stroke-linecap: square"/>
   </g>
   <g id="line2d_4">
    <path d="M 86.544545 199.416507 
L 93.957288 211.649924 
L 101.370031 198.563013 
L 108.782774 190.597067 
L 116.195517 201.123496 
L 123.60826 147.922359 
L 131.021002 182.631122 
L 138.433745 182.346624 
L 145.846488 183.484616 
L 153.259231 119.757051 
L 160.671974 160.724771 
L 168.084716 180.924133 
L 175.497459 120.326047 
L 182.910202 58.589968 
L 190.322945 145.646374 
L 197.735688 162.716258 
L 205.14843 153.327822 
L 212.561173 93.014233 
L 219.973916 209.373939 
L 227.386659 120.895043 
L 234.799402 115.774078 
L 242.212145 72.530373 
L 249.624887 100.126684 
L 257.03763 110.653113 
L 264.450373 104.109657 
L 271.863116 103.540661 
L 279.275859 94.152225 
L 286.688601 93.867727 
L 294.101344 82.203307 
L 301.514087 61.15045 
L 308.92683 102.971665 
L 316.339573 98.988692 
L 323.752315 97.281704 
L 331.165058 120.610545 
L 338.577801 44.649563 
L 345.990544 54.322497 
L 353.403287 98.419696 
L 360.81603 139.387417 
L 368.228772 114.067089 
L 375.641515 142.801393 
L 383.054258 177.225659 
L 390.467001 162.147261 
L 397.879744 159.586779 
L 405.292486 133.412957 
L 412.705229 113.213595 
L 420.117972 138.249424 
L 427.530715 104.678653 
L 434.943458 141.947899 
L 442.3562 129.998981 
L 449.768943 128.860989 
L 457.181686 159.017783 
L 464.594429 138.818421 
L 472.007172 120.610545 
L 479.419915 143.085891 
L 486.832657 165.27674 
L 494.2454 181.208632 
L 501.658143 150.198343 
L 509.070886 111.506607 
L 516.483629 126.869502 
L 523.896371 158.164289 
L 531.309114 101.264677 
L 538.721857 74.237361 
L 546.1346 100.126684 
L 553.547343 115.205082 
L 560.960085 93.014233 
L 568.372828 104.963151 
L 575.785571 78.220334 
L 583.198314 110.084117 
L 590.611057 107.808132 
L 598.0238 81.918809 
L 605.436542 96.42821 
L 612.849285 167.268227 
L 620.262028 75.090855 
L 627.674771 31.84715 
L 635.087514 93.014233 
L 642.500256 104.678653 
L 649.912999 115.48958 
L 657.325742 108.946124 
L 664.738485 114.067089 
L 672.151228 87.60877 
L 679.56397 96.997206 
L 686.976713 135.97344 
L 694.389456 39.813096 
L 701.802199 76.228847 
L 709.214942 157.310794 
L 716.627685 123.455525 
L 724.040427 212.503418 
L 731.45317 134.835448 
L 738.865913 89.03126 
L 746.278656 167.268227 
L 753.691399 166.414732 
L 761.104141 241.806718 
L 768.516884 214.494904 
L 775.929627 175.234172 
L 783.34237 162.147261 
L 790.755113 111.222109 
L 798.167855 157.026296 
L 805.580598 173.242686 
L 812.993341 178.363651 
L 820.406084 160.440273 
L 827.818827 78.220334 
L 835.23157 174.949674 
L 842.644312 195.149036 
L 850.057055 148.206857 
L 857.469798 111.506607 
L 864.882541 129.145487 
L 872.295284 153.043324 
L 879.708026 192.304056 
L 887.120769 145.646374 
L 894.533512 159.302281 
L 901.946255 161.293767 
L 909.358998 223.314344 
L 916.77174 125.447012 
L 924.184483 108.09263 
L 931.597226 75.659851 
L 939.009969 104.963151 
L 946.422712 103.540661 
L 953.835455 135.119946 
" clip-path="url(#pac6bcf8d19)" style="fill: none; stroke: #b0b0b0; stroke-opacity: 0.4; stroke-width: 1.5; stroke-linecap: square"/>
   </g>
   <g id="matplotlib.axis_1">
    <g id="xtick_1">
     <g id="line2d_5">
      <defs>
       <path id="mafd3f3d906" d="M 0 0 
L 0 3.5 
" style="stroke: #000000; stroke-width: 0.8"/>
      </defs>
      <g>
       <use xlink:href="#mafd3f3d906" x="51.598758" y="445.279731" style="stroke: #000000; stroke-width: 0.8"/>
      </g>
     </g>
     <g id="text_1">
      <text style="font-size: 10px; font-family: 'DejaVu Sans', 'Bitstream Vera Sans', 'Computer Modern Sans Serif', 'Lucida Grande', 'Verdana', 'Geneva', 'Lucid', 'Arial', 'Helvetica', 'Avant Garde', sans-serif" transform="translate(36.586549 491.5794) rotate(-45)">Dec 2021</text>
     </g>
    </g>
    <g id="xtick_2">
     <g id="line2d_6">
      <g>
       <use xlink:href="#mafd3f3d906" x="146.905451" y="445.279731" style="stroke: #000000; stroke-width: 0.8"/>
      </g>
     </g>
     <g id="text_2">
      <text style="font-size: 10px; font-family: 'DejaVu Sans', 'Bitstream Vera Sans', 'Computer Modern Sans Serif', 'Lucida Grande', 'Verdana', 'Geneva', 'Lucid', 'Arial', 'Helvetica', 'Avant Garde', sans-serif" transform="translate(132.064495 491.236895) rotate(-45)">Mar 2022</text>
     </g>
    </g>
    <g id="xtick_3">
     <g id="line2d_7">
      <g>
       <use xlink:href="#mafd3f3d906" x="244.330071" y="445.279731" style="stroke: #000000; stroke-width: 0.8"/>
      </g>
     </g>
     <g id="text_3">
      <text style="font-size: 10px; font-family: 'DejaVu Sans', 'Bitstream Vera Sans', 'Computer Modern Sans Serif', 'Lucida Grande', 'Verdana', 'Geneva', 'Lucid', 'Arial', 'Helvetica', 'Avant Garde', sans-serif" transform="translate(230.635401 488.944322) rotate(-45)">Jun 2022</text>
     </g>
    </g>
    <g id="xtick_4">
     <g id="line2d_8">
      <g>
       <use xlink:href="#mafd3f3d906" x="341.754691" y="445.279731" style="stroke: #000000; stroke-width: 0.8"/>
      </g>
     </g>
     <g id="text_4">
      <text style="font-size: 10px; font-family: 'DejaVu Sans', 'Bitstream Vera Sans', 'Computer Modern Sans Serif', 'Lucida Grande', 'Verdana', 'Geneva', 'Lucid', 'Arial', 'Helvetica', 'Avant Garde', sans-serif" transform="translate(326.919812 491.224741) rotate(-45)">Sep 2022</text>
     </g>
    </g>
    <g id="xtick_5">
     <g id="line2d_9">
      <g>
       <use xlink:href="#mafd3f3d906" x="438.120347" y="445.279731" style="stroke: #000000; stroke-width: 0.8"/>
      </g>
     </g>
     <g id="text_5">
      <text style="font-size: 10px; font-family: 'DejaVu Sans', 'Bitstream Vera Sans', 'Computer Modern Sans Serif', 'Lucida Grande', 'Verdana', 'Geneva', 'Lucid', 'Arial', 'Helvetica', 'Avant Garde', sans-serif" transform="translate(423.108139 491.5794) rotate(-45)">Dec 2022</text>
     </g>
    </g>
    <g id="xtick_6">
     <g id="line2d_10">
      <g>
       <use xlink:href="#mafd3f3d906" x="533.427041" y="445.279731" style="stroke: #000000; stroke-width: 0.8"/>
      </g>
     </g>
     <g id="text_6">
      <text style="font-size: 10px; font-family: 'DejaVu Sans', 'Bitstream Vera Sans', 'Computer Modern Sans Serif', 'Lucida Grande', 'Verdana', 'Geneva', 'Lucid', 'Arial', 'Helvetica', 'Avant Garde', sans-serif" transform="translate(518.586085 491.236895) rotate(-45)">Mar 2023</text>
     </g>
    </g>
    <g id="xtick_7">
     <g id="line2d_11">
      <g>
       <use xlink:href="#mafd3f3d906" x="630.851661" y="445.279731" style="stroke: #000000; stroke-width: 0.8"/>
      </g>
     </g>
     <g id="text_7">
      <text style="font-size: 10px; font-family: 'DejaVu Sans', 'Bitstream Vera Sans', 'Computer Modern Sans Serif', 'Lucida Grande', 'Verdana', 'Geneva', 'Lucid', 'Arial', 'Helvetica', 'Avant Garde', sans-serif" transform="translate(617.156991 488.944322) rotate(-45)">Jun 2023</text>
     </g>
    </g>
    <g id="xtick_8">
     <g id="line2d_12">
      <g>
       <use xlink:href="#mafd3f3d906" x="728.27628" y="445.279731" style="stroke: #000000; stroke-width: 0.8"/>
      </g>
     </g>
     <g id="text_8">
      <text style="font-size: 10px; font-family: 'DejaVu Sans', 'Bitstream Vera Sans', 'Computer Modern Sans Serif', 'Lucida Grande', 'Verdana', 'Geneva', 'Lucid', 'Arial', 'Helvetica', 'Avant Garde', sans-serif" transform="translate(713.441401 491.224741) rotate(-45)">Sep 2023</text>
     </g>
    </g>
    <g id="xtick_9">
     <g id="line2d_13">
      <g>
       <use xlink:href="#mafd3f3d906" x="824.641937" y="445.279731" style="stroke: #000000; stroke-width: 0.8"/>
      </g>
     </g>
     <g id="text_9">
      <text style="font-size: 10px; font-family: 'DejaVu Sans', 'Bitstream Vera Sans', 'Computer Modern Sans Serif', 'Lucida Grande', 'Verdana', 'Geneva', 'Lucid', 'Arial', 'Helvetica', 'Avant Garde', sans-serif" transform="translate(809.629729 491.5794) rotate(-45)">Dec 2023</text>
     </g>
    </g>
    <g id="xtick_10">
     <g id="line2d_14">
      <g>
       <use xlink:href="#mafd3f3d906" x="921.007594" y="445.279731" style="stroke: #000000; stroke-width: 0.8"/>
      </g>
     </g>
     <g id="text_10">
      <text style="font-size: 10px; font-family: 'DejaVu Sans', 'Bitstream Vera Sans', 'Computer Modern Sans Serif', 'Lucida Grande', 'Verdana', 'Geneva', 'Lucid', 'Arial', 'Helvetica', 'Avant Garde', sans-serif" transform="translate(906.166638 491.236895) rotate(-45)">Mar 2024</text>
     </g>
    </g>
   </g>
   <g id="matplotlib.axis_2">
    <g id="ytick_1">
     <g id="line2d_15">
      <path d="M 43.18 413.359048 
L 997.2 413.359048 
" clip-path="url(#pac6bcf8d19)" style="fill: none; stroke: #b0b0b0; stroke-opacity: 0.1; stroke-width: 0.8; stroke-linecap: square"/>
     </g>
     <g id="line2d_16">
      <defs>
       <path id="m74822c269c" d="M 0 0 
L -3.5 0 
" style="stroke: #000000; stroke-width: 0.8"/>
      </defs>
      <g>
       <use xlink:href="#m74822c269c" x="43.18" y="413.359048" style="stroke: #000000; stroke-width: 0.8"/>
      </g>
     </g>
     <g id="text_11">
      <text style="font-size: 10px; font-family: 'DejaVu Sans', 'Bitstream Vera Sans', 'Computer Modern Sans Serif', 'Lucida Grande', 'Verdana', 'Geneva', 'Lucid', 'Arial', 'Helvetica', 'Avant Garde', sans-serif; text-anchor: end" x="36.18" y="417.158267" transform="rotate(-0 36.18 417.158267)">200</text>
     </g>
    </g>
    <g id="ytick_2">
     <g id="line2d_17">
      <path d="M 43.18 356.459436 
L 997.2 356.459436 
" clip-path="url(#pac6bcf8d19)" style="fill: none; stroke: #b0b0b0; stroke-opacity: 0.1; stroke-width: 0.8; stroke-linecap: square"/>
     </g>
     <g id="line2d_18">
      <g>
       <use xlink:href="#m74822c269c" x="43.18" y="356.459436" style="stroke: #000000; stroke-width: 0.8"/>
      </g>
     </g>
     <g id="text_12">
      <text style="font-size: 10px; font-family: 'DejaVu Sans', 'Bitstream Vera Sans', 'Computer Modern Sans Serif', 'Lucida Grande', 'Verdana', 'Geneva', 'Lucid', 'Arial', 'Helvetica', 'Avant Garde', sans-serif; text-anchor: end" x="36.18" y="360.258655" transform="rotate(-0 36.18 360.258655)">400</text>
     </g>
    </g>
    <g id="ytick_3">
     <g id="line2d_19">
      <path d="M 43.18 299.559824 
L 997.2 299.559824 
" clip-path="url(#pac6bcf8d19)" style="fill: none; stroke: #b0b0b0; stroke-opacity: 0.1; stroke-width: 0.8; stroke-linecap: square"/>
     </g>
     <g id="line2d_20">
      <g>
       <use xlink:href="#m74822c269c" x="43.18" y="299.559824" style="stroke: #000000; stroke-width: 0.8"/>
      </g>
     </g>
     <g id="text_13">
      <text style="font-size: 10px; font-family: 'DejaVu Sans', 'Bitstream Vera Sans', 'Computer Modern Sans Serif', 'Lucida Grande', 'Verdana', 'Geneva', 'Lucid', 'Arial', 'Helvetica', 'Avant Garde', sans-serif; text-anchor: end" x="36.18" y="303.359043" transform="rotate(-0 36.18 303.359043)">600</text>
     </g>
    </g>
    <g id="ytick_4">
     <g id="line2d_21">
      <path d="M 43.18 242.660212 
L 997.2 242.660212 
" clip-path="url(#pac6bcf8d19)" style="fill: none; stroke: #b0b0b0; stroke-opacity: 0.1; stroke-width: 0.8; stroke-linecap: square"/>
     </g>
     <g id="line2d_22">
      <g>
       <use xlink:href="#m74822c269c" x="43.18" y="242.660212" style="stroke: #000000; stroke-width: 0.8"/>
      </g>
     </g>
     <g id="text_14">
      <text style="font-size: 10px; font-family: 'DejaVu Sans', 'Bitstream Vera Sans', 'Computer Modern Sans Serif', 'Lucida Grande', 'Verdana', 'Geneva', 'Lucid', 'Arial', 'Helvetica', 'Avant Garde', sans-serif; text-anchor: end" x="36.18" y="246.459431" transform="rotate(-0 36.18 246.459431)">800</text>
     </g>
    </g>
    <g id="ytick_5">
     <g id="line2d_23">
      <path d="M 43.18 185.7606 
L 997.2 185.7606 
" clip-path="url(#pac6bcf8d19)" style="fill: none; stroke: #b0b0b0; stroke-opacity: 0.1; stroke-width: 0.8; stroke-linecap: square"/>
     </g>
     <g id="line2d_24">
      <g>
       <use xlink:href="#m74822c269c" x="43.18" y="185.7606" style="stroke: #000000; stroke-width: 0.8"/>
      </g>
     </g>
     <g id="text_15">
      <text style="font-size: 10px; font-family: 'DejaVu Sans', 'Bitstream Vera Sans', 'Computer Modern Sans Serif', 'Lucida Grande', 'Verdana', 'Geneva', 'Lucid', 'Arial', 'Helvetica', 'Avant Garde', sans-serif; text-anchor: end" x="36.18" y="189.559819" transform="rotate(-0 36.18 189.559819)">1000</text>
     </g>
    </g>
    <g id="ytick_6">
     <g id="line2d_25">
      <path d="M 43.18 128.860989 
L 997.2 128.860989 
" clip-path="url(#pac6bcf8d19)" style="fill: none; stroke: #b0b0b0; stroke-opacity: 0.1; stroke-width: 0.8; stroke-linecap: square"/>
     </g>
     <g id="line2d_26">
      <g>
       <use xlink:href="#m74822c269c" x="43.18" y="128.860989" style="stroke: #000000; stroke-width: 0.8"/>
      </g>
     </g>
     <g id="text_16">
      <text style="font-size: 10px; font-family: 'DejaVu Sans', 'Bitstream Vera Sans', 'Computer Modern Sans Serif', 'Lucida Grande', 'Verdana', 'Geneva', 'Lucid', 'Arial', 'Helvetica', 'Avant Garde', sans-serif; text-anchor: end" x="36.18" y="132.660207" transform="rotate(-0 36.18 132.660207)">1200</text>
     </g>
    </g>
    <g id="ytick_7">
     <g id="line2d_27">
      <path d="M 43.18 71.961377 
L 997.2 71.961377 
" clip-path="url(#pac6bcf8d19)" style="fill: none; stroke: #b0b0b0; stroke-opacity: 0.1; stroke-width: 0.8; stroke-linecap: square"/>
     </g>
     <g id="line2d_28">
      <g>
       <use xlink:href="#m74822c269c" x="43.18" y="71.961377" style="stroke: #000000; stroke-width: 0.8"/>
      </g>
     </g>
     <g id="text_17">
      <text style="font-size: 10px; font-family: 'DejaVu Sans', 'Bitstream Vera Sans', 'Computer Modern Sans Serif', 'Lucida Grande', 'Verdana', 'Geneva', 'Lucid', 'Arial', 'Helvetica', 'Avant Garde', sans-serif; text-anchor: end" x="36.18" y="75.760595" transform="rotate(-0 36.18 75.760595)">1400</text>
     </g>
    </g>
    <g id="ytick_8">
     <g id="line2d_29">
      <path d="M 43.18 15.061765 
L 997.2 15.061765 
" clip-path="url(#pac6bcf8d19)" style="fill: none; stroke: #b0b0b0; stroke-opacity: 0.1; stroke-width: 0.8; stroke-linecap: square"/>
     </g>
     <g id="line2d_30">
      <g>
       <use xlink:href="#m74822c269c" x="43.18" y="15.061765" style="stroke: #000000; stroke-width: 0.8"/>
      </g>
     </g>
     <g id="text_18">
      <text style="font-size: 10px; font-family: 'DejaVu Sans', 'Bitstream Vera Sans', 'Computer Modern Sans Serif', 'Lucida Grande', 'Verdana', 'Geneva', 'Lucid', 'Arial', 'Helvetica', 'Avant Garde', sans-serif; text-anchor: end" x="36.18" y="18.860983" transform="rotate(-0 36.18 18.860983)">1600</text>
     </g>
    </g>
   </g>
   <g id="line2d_31">
    <path d="M 792.873039 445.279731 
L 792.873039 12.159884 
" clip-path="url(#pac6bcf8d19)" style="fill: none; stroke-dasharray: 5.55,2.4; stroke-dashoffset: 0; stroke: #000000; stroke-opacity: 0.7; stroke-width: 1.5"/>
   </g>
   <g id="patch_3">
    <path d="M 43.18 445.279731 
L 997.2 445.279731 
" style="fill: none; stroke: #000000; stroke-width: 0.8; stroke-linejoin: miter; stroke-linecap: square"/>
   </g>
   <g id="FillBetweenPolyCollection_1">
    <defs>
     <path id="me0eddb8b1d" d="M 798.167855 -140.143614 
L 798.167855 -166.601934 
L 805.580598 -167.17093 
L 812.993341 -162.618961 
L 820.406084 -162.049965 
L 827.818827 -155.222011 
L 835.23157 -162.334463 
L 842.644312 -149.53205 
L 850.057055 -130.755178 
L 857.469798 -123.642727 
L 864.882541 -113.400797 
L 872.295284 -110.840314 
L 879.708026 -102.58987 
L 887.120769 -96.615411 
L 894.533512 -101.451878 
L 901.946255 -93.485932 
L 909.358998 -100.029388 
L 924.184483 -91.494446 
L 931.597226 -81.821512 
L 939.009969 -83.812998 
L 946.422712 -78.407535 
L 946.422712 -217.527086 
L 946.422712 -217.527086 
L 939.009969 -206.147164 
L 931.597226 -220.087569 
L 924.184483 -226.915522 
L 909.358998 -225.493032 
L 901.946255 -228.907009 
L 894.533512 -212.406121 
L 887.120769 -218.096083 
L 879.708026 -204.724674 
L 872.295284 -192.775755 
L 864.882541 -198.181218 
L 857.469798 -202.164191 
L 850.057055 -177.41286 
L 842.644312 -145.549077 
L 835.23157 -155.791007 
L 827.818827 -143.842089 
L 820.406084 -139.29012 
L 812.993341 -145.549077 
L 805.580598 -152.377031 
L 798.167855 -140.143614 
z
" style="stroke: #e63946; stroke-opacity: 0.9"/>
    </defs>
    <g clip-path="url(#pac6bcf8d19)">
     <use xlink:href="#me0eddb8b1d" x="0" y="504" style="fill: #e63946; fill-opacity: 0.9; stroke: #e63946; stroke-opacity: 0.9"/>
    </g>
   </g>
   <g id="line2d_32">
    <path d="M 86.544545 373.244822 
L 93.957288 378.081289 
L 101.370031 381.210768 
L 108.782774 372.960324 
L 116.195517 371.253335 
L 123.60826 374.667312 
L 131.021002 367.270363 
L 138.433745 381.495266 
L 145.846488 376.658799 
L 153.259231 380.641771 
L 160.671974 375.236308 
L 168.084716 381.779764 
L 175.497459 388.607717 
L 182.910202 374.95181 
L 190.322945 383.486752 
L 197.735688 372.391328 
L 205.14843 368.977351 
L 212.561173 366.13237 
L 219.973916 384.340246 
L 227.386659 372.960324 
L 234.799402 372.10683 
L 242.212145 375.520806 
L 249.624887 366.13237 
L 257.03763 385.19374 
L 264.450373 367.554861 
L 271.863116 363.856386 
L 279.275859 382.064262 
L 286.688601 367.554861 
L 294.101344 375.520806 
L 301.514087 369.830845 
L 308.92683 370.684339 
L 316.339573 375.236308 
L 323.752315 379.503779 
L 331.165058 364.425382 
L 338.577801 376.089802 
L 345.990544 359.873413 
L 353.403287 376.089802 
L 360.81603 375.805304 
L 368.228772 369.546347 
L 375.641515 378.365787 
L 383.054258 381.779764 
L 390.467001 373.244822 
L 397.879744 370.684339 
L 405.292486 367.839359 
L 412.705229 380.072775 
L 420.117972 378.365787 
L 427.530715 376.089802 
L 434.943458 369.830845 
L 442.3562 374.098316 
L 449.768943 380.357273 
L 457.181686 373.52932 
L 464.594429 379.219281 
L 472.007172 376.943297 
L 479.419915 356.459436 
L 486.832657 383.77125 
L 494.2454 374.382814 
L 501.658143 365.563374 
L 509.070886 372.960324 
L 516.483629 380.641771 
L 523.896371 377.227795 
L 531.309114 381.779764 
L 538.721857 372.391328 
L 546.1346 360.442409 
L 553.547343 378.365787 
L 560.960085 371.537833 
L 568.372828 373.813818 
L 575.785571 373.52932 
L 583.198314 363.002892 
L 590.611057 375.236308 
L 598.0238 366.701366 
L 605.436542 361.011405 
L 612.849285 364.425382 
L 620.262028 364.70988 
L 627.674771 359.873413 
L 635.087514 364.70988 
L 642.500256 375.236308 
L 649.912999 349.631483 
L 657.325742 370.684339 
L 664.738485 374.098316 
L 672.151228 356.174938 
L 679.56397 353.898954 
L 686.976713 366.13237 
L 694.389456 347.355498 
L 701.802199 360.157911 
L 709.214942 355.036946 
L 716.627685 370.684339 
L 724.040427 343.941522 
L 731.45317 363.002892 
L 753.691399 349.631483 
L 761.104141 361.864899 
L 768.516884 357.881927 
L 775.929627 357.597429 
L 783.34237 364.994378 
L 790.755113 358.735421 
L 798.167855 363.856386 
L 805.580598 351.622969 
L 812.993341 358.450923 
L 820.406084 364.70988 
L 827.818827 360.157911 
L 835.23157 348.208993 
L 842.644312 358.450923 
L 850.057055 326.58714 
L 857.469798 301.835809 
L 864.882541 305.818782 
L 872.295284 311.224245 
L 879.708026 299.275326 
L 887.120769 285.903917 
L 894.533512 291.593879 
L 901.946255 275.092991 
L 909.358998 278.506968 
L 924.184483 277.084478 
L 931.597226 283.912431 
L 939.009969 297.852836 
L 946.422712 286.472914 
" clip-path="url(#pac6bcf8d19)" style="fill: none; stroke: #1d3557; stroke-width: 3; stroke-linecap: square"/>
   </g>
   <g id="line2d_33">
    <path d="M 86.544545 361.864899 
L 93.957288 376.658799 
L 101.370031 373.244822 
L 108.782774 370.115343 
L 116.195517 364.70988 
L 123.60826 356.459436 
L 131.021002 376.089802 
L 138.433745 369.830845 
L 145.846488 362.149398 
L 153.259231 369.261849 
L 160.671974 366.985865 
L 168.084716 366.701366 
L 175.497459 363.856386 
L 182.910202 355.036946 
L 190.322945 363.002892 
L 197.735688 350.200479 
L 205.14843 359.588915 
L 212.561173 359.588915 
L 219.973916 385.762736 
L 227.386659 355.89044 
L 234.799402 366.416868 
L 242.212145 355.605942 
L 249.624887 355.036946 
L 257.03763 357.31293 
L 264.450373 357.31293 
L 271.863116 335.691078 
L 279.275859 353.04546 
L 286.688601 347.071 
L 294.101344 357.31293 
L 301.514087 341.665537 
L 308.92683 343.657024 
L 316.339573 351.053973 
L 323.752315 353.614456 
L 331.165058 348.777989 
L 338.577801 344.510518 
L 345.990544 348.493491 
L 353.403287 348.493491 
L 360.81603 354.183452 
L 368.228772 347.071 
L 375.641515 355.036946 
L 383.054258 360.157911 
L 390.467001 345.933008 
L 397.879744 350.769475 
L 405.292486 334.268588 
L 412.705229 353.329958 
L 420.117972 360.157911 
L 427.530715 349.346985 
L 434.943458 339.389553 
L 442.3562 338.536059 
L 449.768943 351.622969 
L 457.181686 347.639996 
L 464.594429 348.208993 
L 472.007172 344.22602 
L 479.419915 347.639996 
L 486.832657 349.062487 
L 494.2454 348.777989 
L 501.658143 346.217506 
L 509.070886 353.614456 
L 516.483629 378.650285 
L 523.896371 349.915981 
L 531.309114 357.597429 
L 538.721857 336.82907 
L 546.1346 340.243047 
L 553.547343 347.355498 
L 560.960085 344.795016 
L 568.372828 335.122082 
L 575.785571 338.536059 
L 583.198314 332.277101 
L 590.611057 331.139109 
L 598.0238 333.415093 
L 605.436542 345.364012 
L 612.849285 324.026658 
L 620.262028 336.82907 
L 627.674771 343.088028 
L 635.087514 345.64851 
L 642.500256 345.64851 
L 649.912999 335.122082 
L 657.325742 338.536059 
L 664.738485 356.459436 
L 672.151228 343.657024 
L 679.56397 345.933008 
L 686.976713 353.614456 
L 694.389456 355.321444 
L 701.802199 356.174938 
L 709.214942 343.941522 
L 716.627685 355.321444 
L 724.040427 350.769475 
L 731.45317 349.915981 
L 738.865913 359.019919 
L 746.278656 359.873413 
L 753.691399 341.381039 
L 761.104141 340.527545 
L 768.516884 335.122082 
L 775.929627 343.088028 
L 783.34237 339.105055 
L 790.755113 337.113568 
L 798.167855 337.398066 
L 805.580598 336.82907 
L 812.993341 341.381039 
L 820.406084 341.950035 
L 827.818827 348.777989 
L 835.23157 341.665537 
L 842.644312 354.46795 
L 850.057055 373.244822 
L 857.469798 380.357273 
L 864.882541 390.599203 
L 872.295284 393.159686 
L 879.708026 401.41013 
L 887.120769 407.384589 
L 894.533512 402.548122 
L 901.946255 410.514068 
L 909.358998 403.970612 
L 916.77174 409.945072 
L 924.184483 412.505554 
L 931.597226 422.178488 
L 939.009969 420.187002 
L 946.422712 425.592465 
L 953.835455 424.738971 
" clip-path="url(#pac6bcf8d19)" style="fill: none; stroke: #e63946; stroke-width: 3; stroke-linecap: square"/>
   </g>
  </g>
 </g>
 <defs>
  <clipPath id="pac6bcf8d19">
   <rect x="43.18" y="12.159884" width="954.02" height="433.119846"/>
  </clipPath>
 </defs>
</svg>
